<!DOCTYPE svg PUBLIC "-//W3C//DTD SVG 1.1//EN" "http://www.w3.org/Graphics/SVG/1.1/DTD/svg11.dtd">
<svg xmlns="http://www.w3.org/2000/svg" xmlns:xlink="http://www.w3.org/1999/xlink" width="684px" height="403px" version="1.1"><defs/><g transform="translate(0.5,0.5)"><path d="M 642 81 L 405.51 316.51" fill="none" stroke="#000000" stroke-miterlimit="10" pointer-events="none"/><path d="M 401.79 320.21 L 404.28 312.79 L 405.51 316.51 L 409.22 317.75 Z" fill="#000000" stroke="#000000" stroke-miterlimit="10" pointer-events="none"/><rect x="602" y="1" width="80" height="80" fill="#f5f5f5" stroke="#666666" pointer-events="none"/><path d="M 521 81 L 46.7 318.15" fill="none" stroke="#000000" stroke-miterlimit="10" pointer-events="none"/><path d="M 42 320.5 L 46.7 314.24 L 46.7 318.15 L 49.83 320.5 Z" fill="#000000" stroke="#000000" stroke-miterlimit="10" pointer-events="none"/><rect x="481" y="1" width="80" height="80" fill="#f5f5f5" stroke="#666666" pointer-events="none"/><path d="M 401 81 L 283.85 315.3" fill="none" stroke="#000000" stroke-miterlimit="10" pointer-events="none"/><path d="M 281.5 320 L 281.5 312.17 L 283.85 315.3 L 287.76 315.3 Z" fill="#000000" stroke="#000000" stroke-miterlimit="10" pointer-events="none"/><rect x="361" y="1" width="80" height="80" fill="#f5f5f5" stroke="#666666" pointer-events="none"/><path d="M 281 81 L 516.5 316.5" fill="none" stroke="#000000" stroke-miterlimit="10" pointer-events="none"/><path d="M 520.21 320.21 L 512.78 317.73 L 516.5 316.5 L 517.73 312.78 Z" fill="#000000" stroke="#000000" stroke-miterlimit="10" pointer-events="none"/><rect x="241" y="1" width="80" height="80" fill="#f5f5f5" stroke="#666666" pointer-events="none"/><path d="M 161 81 L 636.3 318.16" fill="none" stroke="#000000" stroke-miterlimit="10" pointer-events="none"/><path d="M 641 320.5 L 633.17 320.51 L 636.3 318.16 L 636.3 314.24 Z" fill="#000000" stroke="#000000" stroke-miterlimit="10" pointer-events="none"/><rect x="121" y="1" width="80" height="80" fill="#f5f5f5" stroke="#666666" pointer-events="none"/><path d="M 41 81 L 158.15 315.3" fill="none" stroke="#000000" stroke-miterlimit="10" pointer-events="none"/><path d="M 160.5 320 L 154.24 315.3 L 158.15 315.3 L 160.5 312.17 Z" fill="#000000" stroke="#000000" stroke-miterlimit="10" pointer-events="none"/><rect x="1" y="1" width="80" height="80" fill="#f5f5f5" stroke="#666666" pointer-events="none"/><rect x="1" y="321" width="80" height="80" fill="#f5f5f5" stroke="#666666" pointer-events="none"/><rect x="121" y="321" width="80" height="80" fill="#f5f5f5" stroke="#666666" pointer-events="none"/><rect x="241" y="321" width="80" height="80" fill="#f5f5f5" stroke="#666666" pointer-events="none"/><rect x="361" y="321" width="80" height="80" fill="#f5f5f5" stroke="#666666" pointer-events="none"/><rect x="481" y="321" width="80" height="80" fill="#f5f5f5" stroke="#666666" pointer-events="none"/><rect x="602" y="321" width="80" height="80" fill="#f5f5f5" stroke="#666666" pointer-events="none"/></g></svg>