<!DOCTYPE svg PUBLIC "-//W3C//DTD SVG 1.1//EN" "http://www.w3.org/Graphics/SVG/1.1/DTD/svg11.dtd">
<svg xmlns="http://www.w3.org/2000/svg" xmlns:xlink="http://www.w3.org/1999/xlink" width="643px" height="151px" version="1.1"><defs/><g transform="translate(0.5,0.5)"><rect x="1" y="1" width="80" height="80" fill="#d5e8d4" stroke="#82b366" pointer-events="none"/><path d="M 121 81 L 121 91 Q 121 101 131 101 L 351 101 Q 361 101 361 94.18 L 361 87.37" fill="none" stroke="#000000" stroke-miterlimit="10" pointer-events="none"/><path d="M 361 82.12 L 364.5 89.12 L 361 87.37 L 357.5 89.12 Z" fill="#000000" stroke="#000000" stroke-miterlimit="10" pointer-events="none"/><rect x="81" y="1" width="80" height="80" fill="#d5e8d4" stroke="#82b366" pointer-events="none"/><path d="M 201 81 L 201 111 Q 201 121 211 121 L 431 121 Q 441 121 441 111 L 441 87.37" fill="none" stroke="#000000" stroke-miterlimit="10" pointer-events="none"/><path d="M 441 82.12 L 444.5 89.12 L 441 87.37 L 437.5 89.12 Z" fill="#000000" stroke="#000000" stroke-miterlimit="10" pointer-events="none"/><rect x="161" y="1" width="80" height="80" fill="#d5e8d4" stroke="#82b366" pointer-events="none"/><path d="M 281 81 L 281 131 Q 281 141 291 141 L 511 141 Q 521 141 521 131 L 521 87.37" fill="none" stroke="#000000" stroke-miterlimit="10" pointer-events="none"/><path d="M 521 82.12 L 524.5 89.12 L 521 87.37 L 517.5 89.12 Z" fill="#000000" stroke="#000000" stroke-miterlimit="10" pointer-events="none"/><rect x="241" y="1" width="80" height="80" fill="#d5e8d4" stroke="#82b366" pointer-events="none"/><rect x="321" y="1" width="80" height="80" fill="#ffffff" stroke="#000000" pointer-events="none"/><rect x="401" y="1" width="80" height="80" fill="#ffffff" stroke="#000000" pointer-events="none"/><rect x="481" y="1" width="80" height="80" fill="#ffffff" stroke="#000000" pointer-events="none"/><rect x="561" y="1" width="80" height="80" fill="#ffffff" stroke="#000000" pointer-events="none"/></g></svg>