<!DOCTYPE svg PUBLIC "-//W3C//DTD SVG 1.1//EN" "http://www.w3.org/Graphics/SVG/1.1/DTD/svg11.dtd">
<svg xmlns="http://www.w3.org/2000/svg" xmlns:xlink="http://www.w3.org/1999/xlink" width="643px" height="131px" version="1.1"><defs/><g transform="translate(0.5,0.5)"><rect x="1" y="1" width="80" height="80" fill="#d5e8d4" stroke="#82b366" pointer-events="none"/><rect x="81" y="1" width="80" height="80" fill="#d5e8d4" stroke="#82b366" pointer-events="none"/><rect x="161" y="1" width="80" height="80" fill="#d5e8d4" stroke="#82b366" pointer-events="none"/><path d="M 301 81 L 301 111 Q 301 121 311 121 L 331 121 Q 341 121 341 111 L 341 87.37" fill="none" stroke="#000000" stroke-miterlimit="10" pointer-events="none"/><path d="M 341 82.12 L 344.5 89.12 L 341 87.37 L 337.5 89.12 Z" fill="#000000" stroke="#000000" stroke-miterlimit="10" pointer-events="none"/><rect x="241" y="1" width="80" height="80" fill="#d5e8d4" stroke="#82b366" pointer-events="none"/><path d="M 381 81 L 381 111 Q 381 121 391 121 L 411 121 Q 421 121 421 111 L 421 87.37" fill="none" stroke="#000000" stroke-miterlimit="10" pointer-events="none"/><path d="M 421 82.12 L 424.5 89.12 L 421 87.37 L 417.5 89.12 Z" fill="#000000" stroke="#000000" stroke-miterlimit="10" pointer-events="none"/><rect x="321" y="1" width="80" height="80" fill="#ffffff" stroke="#000000" pointer-events="none"/><path d="M 461 81 L 461 111 Q 461 121 471 121 L 491 121 Q 501 121 501 111 L 501 87.37" fill="none" stroke="#000000" stroke-miterlimit="10" pointer-events="none"/><path d="M 501 82.12 L 504.5 89.12 L 501 87.37 L 497.5 89.12 Z" fill="#000000" stroke="#000000" stroke-miterlimit="10" pointer-events="none"/><rect x="401" y="1" width="80" height="80" fill="#ffffff" stroke="#000000" pointer-events="none"/><path d="M 541 81 L 541 111 Q 541 121 551 121 L 571 121 Q 581 121 581 111 L 581 87.37" fill="none" stroke="#000000" stroke-miterlimit="10" pointer-events="none"/><path d="M 581 82.12 L 584.5 89.12 L 581 87.37 L 577.5 89.12 Z" fill="#000000" stroke="#000000" stroke-miterlimit="10" pointer-events="none"/><rect x="481" y="1" width="80" height="80" fill="#ffffff" stroke="#000000" pointer-events="none"/><rect x="561" y="1" width="80" height="80" fill="#ffffff" stroke="#000000" pointer-events="none"/></g></svg>