<!DOCTYPE svg PUBLIC "-//W3C//DTD SVG 1.1//EN" "http://www.w3.org/Graphics/SVG/1.1/DTD/svg11.dtd">
<svg xmlns="http://www.w3.org/2000/svg" xmlns:xlink="http://www.w3.org/1999/xlink" width="683px" height="138px" version="1.1"><defs/><g transform="translate(0.5,0.5)"><rect x="1" y="28" width="80" height="80" fill="#ffffff" stroke="#000000" pointer-events="none"/><path d="M 161 108 L 161 128 L 521 128 L 521 114.37" fill="none" stroke="#000000" stroke-miterlimit="10" pointer-events="none"/><path d="M 521 109.12 L 524.5 116.12 L 521 114.37 L 517.5 116.12 Z" fill="#000000" stroke="#000000" stroke-miterlimit="10" pointer-events="none"/><rect x="121" y="28" width="80" height="80" fill="#f5f5f5" stroke="#666666" pointer-events="none"/><rect x="241" y="28" width="80" height="80" fill="#ffffff" stroke="#000000" pointer-events="none"/><rect x="361" y="28" width="80" height="80" fill="#f5f5f5" stroke="#666666" pointer-events="none"/><path d="M 521 28 L 521 8 L 401 8 L 401 21.63" fill="none" stroke="#000000" stroke-miterlimit="10" pointer-events="none"/><path d="M 401 26.88 L 397.5 19.88 L 401 21.63 L 404.5 19.88 Z" fill="#000000" stroke="#000000" stroke-miterlimit="10" pointer-events="none"/><rect x="481" y="28" width="80" height="80" fill="#f5f5f5" stroke="#666666" pointer-events="none"/><rect x="601" y="28" width="80" height="80" fill="#ffffff" stroke="#000000" pointer-events="none"/></g></svg>
